<mxfile host="app.diagrams.net" modified="2021-09-03T16:16:08.620Z" agent="5.0 (Windows NT 10.0; Win64; x64) AppleWebKit/537.36 (KHTML, like Gecko) Chrome/92.0.4515.159 Safari/537.36" etag="LusVg9eEn2N6rAS2rREl" version="15.0.6" type="github">
  <diagram id="C5RBs43oDa-KdzZeNtuy" name="Page-1">
    <mxGraphModel dx="1422" dy="762" grid="1" gridSize="10" guides="1" tooltips="1" connect="1" arrows="1" fold="1" page="1" pageScale="1" pageWidth="827" pageHeight="1169" math="0" shadow="0">
      <root>
        <mxCell id="WIyWlLk6GJQsqaUBKTNV-0" />
        <mxCell id="WIyWlLk6GJQsqaUBKTNV-1" parent="WIyWlLk6GJQsqaUBKTNV-0" />
        <mxCell id="eeoXHt2LRXLZrbMBFZsB-8" value="" style="edgeStyle=orthogonalEdgeStyle;rounded=0;orthogonalLoop=1;jettySize=auto;html=1;" edge="1" parent="WIyWlLk6GJQsqaUBKTNV-1" source="WIyWlLk6GJQsqaUBKTNV-3" target="eeoXHt2LRXLZrbMBFZsB-7">
          <mxGeometry relative="1" as="geometry" />
        </mxCell>
        <mxCell id="WIyWlLk6GJQsqaUBKTNV-3" value="Start Here" style="rounded=1;whiteSpace=wrap;html=1;fontSize=12;glass=0;strokeWidth=1;shadow=0;" parent="WIyWlLk6GJQsqaUBKTNV-1" vertex="1">
          <mxGeometry x="325" y="30" width="120" height="40" as="geometry" />
        </mxCell>
        <mxCell id="WIyWlLk6GJQsqaUBKTNV-6" value="Is user guess is in the world &lt;br&gt;or not?" style="rhombus;whiteSpace=wrap;html=1;shadow=0;fontFamily=Helvetica;fontSize=12;align=center;strokeWidth=1;spacing=6;spacingTop=-4;" parent="WIyWlLk6GJQsqaUBKTNV-1" vertex="1">
          <mxGeometry x="237.5" y="400" width="295" height="80" as="geometry" />
        </mxCell>
        <mxCell id="eeoXHt2LRXLZrbMBFZsB-10" value="" style="edgeStyle=orthogonalEdgeStyle;rounded=0;orthogonalLoop=1;jettySize=auto;html=1;" edge="1" parent="WIyWlLk6GJQsqaUBKTNV-1" source="eeoXHt2LRXLZrbMBFZsB-7" target="eeoXHt2LRXLZrbMBFZsB-9">
          <mxGeometry relative="1" as="geometry" />
        </mxCell>
        <mxCell id="eeoXHt2LRXLZrbMBFZsB-7" value="Generate a Random Word" style="rounded=1;whiteSpace=wrap;html=1;fontSize=12;glass=0;strokeWidth=1;shadow=0;" vertex="1" parent="WIyWlLk6GJQsqaUBKTNV-1">
          <mxGeometry x="325" y="100" width="120" height="40" as="geometry" />
        </mxCell>
        <mxCell id="eeoXHt2LRXLZrbMBFZsB-12" value="" style="edgeStyle=orthogonalEdgeStyle;rounded=0;orthogonalLoop=1;jettySize=auto;html=1;" edge="1" parent="WIyWlLk6GJQsqaUBKTNV-1" source="eeoXHt2LRXLZrbMBFZsB-9" target="eeoXHt2LRXLZrbMBFZsB-11">
          <mxGeometry relative="1" as="geometry" />
        </mxCell>
        <mxCell id="eeoXHt2LRXLZrbMBFZsB-9" value="Generate Blanks for the Randomly Generated Word" style="rounded=1;whiteSpace=wrap;html=1;fontSize=12;glass=0;strokeWidth=1;shadow=0;" vertex="1" parent="WIyWlLk6GJQsqaUBKTNV-1">
          <mxGeometry x="320" y="190" width="130" height="60" as="geometry" />
        </mxCell>
        <mxCell id="eeoXHt2LRXLZrbMBFZsB-11" value="Now Get Input From user to get Guess of User" style="rounded=1;whiteSpace=wrap;html=1;fontSize=12;glass=0;strokeWidth=1;shadow=0;" vertex="1" parent="WIyWlLk6GJQsqaUBKTNV-1">
          <mxGeometry x="320" y="290" width="130" height="60" as="geometry" />
        </mxCell>
        <mxCell id="eeoXHt2LRXLZrbMBFZsB-13" value="" style="endArrow=classic;html=1;exitX=0.5;exitY=1;exitDx=0;exitDy=0;" edge="1" parent="WIyWlLk6GJQsqaUBKTNV-1" source="eeoXHt2LRXLZrbMBFZsB-11" target="WIyWlLk6GJQsqaUBKTNV-6">
          <mxGeometry width="50" height="50" relative="1" as="geometry">
            <mxPoint x="390" y="400" as="sourcePoint" />
            <mxPoint x="440" y="350" as="targetPoint" />
          </mxGeometry>
        </mxCell>
        <mxCell id="eeoXHt2LRXLZrbMBFZsB-32" value="" style="edgeStyle=orthogonalEdgeStyle;rounded=0;orthogonalLoop=1;jettySize=auto;html=1;startArrow=oval;startFill=1;" edge="1" parent="WIyWlLk6GJQsqaUBKTNV-1" source="eeoXHt2LRXLZrbMBFZsB-18" target="eeoXHt2LRXLZrbMBFZsB-31">
          <mxGeometry relative="1" as="geometry" />
        </mxCell>
        <mxCell id="eeoXHt2LRXLZrbMBFZsB-18" value="Hangman start Losing Life" style="rounded=1;whiteSpace=wrap;html=1;fontSize=12;glass=0;strokeWidth=1;shadow=0;" vertex="1" parent="WIyWlLk6GJQsqaUBKTNV-1">
          <mxGeometry x="100" y="520" width="172.5" height="40" as="geometry" />
        </mxCell>
        <mxCell id="eeoXHt2LRXLZrbMBFZsB-34" value="" style="edgeStyle=orthogonalEdgeStyle;rounded=0;orthogonalLoop=1;jettySize=auto;html=1;startArrow=oval;startFill=1;" edge="1" parent="WIyWlLk6GJQsqaUBKTNV-1" source="eeoXHt2LRXLZrbMBFZsB-19" target="eeoXHt2LRXLZrbMBFZsB-33">
          <mxGeometry relative="1" as="geometry" />
        </mxCell>
        <mxCell id="eeoXHt2LRXLZrbMBFZsB-19" value="Replace the letter with blanks" style="rounded=1;whiteSpace=wrap;html=1;fontSize=12;glass=0;strokeWidth=1;shadow=0;" vertex="1" parent="WIyWlLk6GJQsqaUBKTNV-1">
          <mxGeometry x="497.5" y="520" width="172.5" height="40" as="geometry" />
        </mxCell>
        <mxCell id="eeoXHt2LRXLZrbMBFZsB-22" value="" style="group" vertex="1" connectable="0" parent="WIyWlLk6GJQsqaUBKTNV-1">
          <mxGeometry x="186" y="440" width="34" height="50" as="geometry" />
        </mxCell>
        <object label="" id="eeoXHt2LRXLZrbMBFZsB-20">
          <mxCell style="endArrow=classic;exitX=0;exitY=0.5;exitDx=0;exitDy=0;entryX=0.5;entryY=0;entryDx=0;entryDy=0;metaEdit=0;ignoreEdge=0;html=1;rounded=0;startArrow=oval;startFill=1;" edge="1" parent="eeoXHt2LRXLZrbMBFZsB-22" source="WIyWlLk6GJQsqaUBKTNV-6" target="eeoXHt2LRXLZrbMBFZsB-18">
            <mxGeometry width="50" height="50" relative="1" as="geometry">
              <mxPoint x="204" y="310" as="sourcePoint" />
              <mxPoint x="104" y="130" as="targetPoint" />
              <Array as="points">
                <mxPoint />
              </Array>
            </mxGeometry>
          </mxCell>
        </object>
        <mxCell id="eeoXHt2LRXLZrbMBFZsB-21" value="No" style="text;html=1;resizable=0;autosize=1;align=center;verticalAlign=middle;points=[];fillColor=none;strokeColor=none;rounded=0;" vertex="1" parent="eeoXHt2LRXLZrbMBFZsB-22">
          <mxGeometry x="4" y="30" width="30" height="20" as="geometry" />
        </mxCell>
        <mxCell id="eeoXHt2LRXLZrbMBFZsB-23" value="" style="group" vertex="1" connectable="0" parent="WIyWlLk6GJQsqaUBKTNV-1">
          <mxGeometry x="580" y="450" width="39" height="50" as="geometry" />
        </mxCell>
        <mxCell id="eeoXHt2LRXLZrbMBFZsB-25" value="Yes" style="text;html=1;resizable=0;autosize=1;align=center;verticalAlign=middle;points=[];fillColor=none;strokeColor=none;rounded=0;" vertex="1" parent="eeoXHt2LRXLZrbMBFZsB-23">
          <mxGeometry x="-1" y="30" width="40" height="20" as="geometry" />
        </mxCell>
        <object label="" id="eeoXHt2LRXLZrbMBFZsB-24">
          <mxCell style="endArrow=classic;entryX=0.5;entryY=0;entryDx=0;entryDy=0;metaEdit=0;ignoreEdge=0;html=1;rounded=0;startArrow=oval;startFill=1;exitX=1;exitY=0.5;exitDx=0;exitDy=0;" edge="1" parent="WIyWlLk6GJQsqaUBKTNV-1" source="WIyWlLk6GJQsqaUBKTNV-6" target="eeoXHt2LRXLZrbMBFZsB-19">
            <mxGeometry width="50" height="50" relative="1" as="geometry">
              <mxPoint x="540" y="440" as="sourcePoint" />
              <mxPoint x="644" y="350" as="targetPoint" />
              <Array as="points">
                <mxPoint x="584" y="440" />
              </Array>
            </mxGeometry>
          </mxCell>
        </object>
        <mxCell id="eeoXHt2LRXLZrbMBFZsB-36" value="" style="edgeStyle=orthogonalEdgeStyle;rounded=0;orthogonalLoop=1;jettySize=auto;html=1;startArrow=oval;startFill=1;" edge="1" parent="WIyWlLk6GJQsqaUBKTNV-1" source="eeoXHt2LRXLZrbMBFZsB-31">
          <mxGeometry relative="1" as="geometry">
            <mxPoint x="320" y="320" as="targetPoint" />
            <Array as="points">
              <mxPoint x="80" y="660" />
              <mxPoint x="80" y="320" />
            </Array>
          </mxGeometry>
        </mxCell>
        <mxCell id="eeoXHt2LRXLZrbMBFZsB-31" value="is he run out of life?" style="rhombus;whiteSpace=wrap;html=1;rounded=1;shadow=0;strokeWidth=1;glass=0;" vertex="1" parent="WIyWlLk6GJQsqaUBKTNV-1">
          <mxGeometry x="104.38" y="620" width="163.75" height="80" as="geometry" />
        </mxCell>
        <mxCell id="eeoXHt2LRXLZrbMBFZsB-38" value="" style="edgeStyle=orthogonalEdgeStyle;rounded=0;orthogonalLoop=1;jettySize=auto;html=1;startArrow=oval;startFill=1;" edge="1" parent="WIyWlLk6GJQsqaUBKTNV-1" source="eeoXHt2LRXLZrbMBFZsB-33" target="eeoXHt2LRXLZrbMBFZsB-37">
          <mxGeometry relative="1" as="geometry">
            <Array as="points">
              <mxPoint x="690" y="660" />
              <mxPoint x="690" y="320" />
            </Array>
          </mxGeometry>
        </mxCell>
        <mxCell id="eeoXHt2LRXLZrbMBFZsB-33" value="Is dashes are filled?" style="rhombus;whiteSpace=wrap;html=1;rounded=1;shadow=0;strokeWidth=1;glass=0;" vertex="1" parent="WIyWlLk6GJQsqaUBKTNV-1">
          <mxGeometry x="498.75" y="620" width="170" height="80" as="geometry" />
        </mxCell>
        <mxCell id="eeoXHt2LRXLZrbMBFZsB-37" value="" style="shape=waypoint;size=6;pointerEvents=1;points=[];fillColor=#ffffff;resizable=0;rotatable=0;perimeter=centerPerimeter;snapToPoint=1;rounded=1;shadow=0;strokeWidth=1;glass=0;" vertex="1" parent="WIyWlLk6GJQsqaUBKTNV-1">
          <mxGeometry x="430" y="300" width="40" height="40" as="geometry" />
        </mxCell>
        <mxCell id="eeoXHt2LRXLZrbMBFZsB-42" value="No" style="text;html=1;resizable=0;autosize=1;align=center;verticalAlign=middle;points=[];fillColor=none;strokeColor=none;rounded=0;" vertex="1" parent="WIyWlLk6GJQsqaUBKTNV-1">
          <mxGeometry x="40" y="650" width="30" height="20" as="geometry" />
        </mxCell>
        <mxCell id="eeoXHt2LRXLZrbMBFZsB-43" value="No" style="text;html=1;resizable=0;autosize=1;align=center;verticalAlign=middle;points=[];fillColor=none;strokeColor=none;rounded=0;" vertex="1" parent="WIyWlLk6GJQsqaUBKTNV-1">
          <mxGeometry x="700" y="650" width="30" height="20" as="geometry" />
        </mxCell>
        <mxCell id="eeoXHt2LRXLZrbMBFZsB-48" value="" style="endArrow=none;html=1;entryX=0.5;entryY=1;entryDx=0;entryDy=0;exitX=0.5;exitY=1;exitDx=0;exitDy=0;" edge="1" parent="WIyWlLk6GJQsqaUBKTNV-1" source="eeoXHt2LRXLZrbMBFZsB-31" target="eeoXHt2LRXLZrbMBFZsB-33">
          <mxGeometry width="50" height="50" relative="1" as="geometry">
            <mxPoint x="390" y="710" as="sourcePoint" />
            <mxPoint x="440" y="660" as="targetPoint" />
            <Array as="points">
              <mxPoint x="186" y="770" />
              <mxPoint x="584" y="770" />
            </Array>
          </mxGeometry>
        </mxCell>
        <mxCell id="eeoXHt2LRXLZrbMBFZsB-49" value="Yes" style="text;html=1;resizable=0;autosize=1;align=center;verticalAlign=middle;points=[];fillColor=none;strokeColor=none;rounded=0;" vertex="1" parent="WIyWlLk6GJQsqaUBKTNV-1">
          <mxGeometry x="185" y="720" width="40" height="20" as="geometry" />
        </mxCell>
        <mxCell id="eeoXHt2LRXLZrbMBFZsB-50" value="Yes" style="text;html=1;resizable=0;autosize=1;align=center;verticalAlign=middle;points=[];fillColor=none;strokeColor=none;rounded=0;" vertex="1" parent="WIyWlLk6GJQsqaUBKTNV-1">
          <mxGeometry x="540" y="720" width="40" height="20" as="geometry" />
        </mxCell>
        <mxCell id="eeoXHt2LRXLZrbMBFZsB-51" value="Game Over" style="rounded=0;whiteSpace=wrap;html=1;" vertex="1" parent="WIyWlLk6GJQsqaUBKTNV-1">
          <mxGeometry x="310" y="820" width="120" height="60" as="geometry" />
        </mxCell>
        <mxCell id="eeoXHt2LRXLZrbMBFZsB-52" value="" style="endArrow=classic;html=1;entryX=0.5;entryY=0;entryDx=0;entryDy=0;" edge="1" parent="WIyWlLk6GJQsqaUBKTNV-1" target="eeoXHt2LRXLZrbMBFZsB-51">
          <mxGeometry width="50" height="50" relative="1" as="geometry">
            <mxPoint x="370" y="770" as="sourcePoint" />
            <mxPoint x="440" y="660" as="targetPoint" />
          </mxGeometry>
        </mxCell>
      </root>
    </mxGraphModel>
  </diagram>
</mxfile>
